<?xml version="1.0" encoding="UTF-8"?>
<svg data-name="Layer 1" viewBox="0 0 448.69 45.72" xmlns="http://www.w3.org/2000/svg">
<defs>
<style>.cls-1{fill:none;}.cls-2{clip-path:url(#a);}.cls-3{fill:#fff;}</style>
<clipPath id="a" transform="translate(-7.15 -4.64)">
<rect class="cls-1" x="7.15" y="4.64" width="448.69" height="45.72"/>
</clipPath>
</defs>
<title>logo</title>
<g class="cls-2">
<path class="cls-3" transform="translate(-7.15 -4.64)" d="M455.84,15.42H449.6v.73l2.83.92-6.1,18.65h-.22l-6.43-18.47,2.75-1.1v-.73H432.9v.73l3,1.54,1,2.68-5,15.35h-.22l-6.39-18.51,2.28-1.06v-.73h-8.67v.73l2.39,1.29L429.44,40h1.65l6.2-18.44L444.09,40h1.58l7.64-23,2.53-.92ZM403,39.72c-5.14,0-9-4.74-9-12s3.89-12,9-12,9,4.77,9,12-3.89,12-9,12M403,15a12.74,12.74,0,1,0,12.93,12.74A12.69,12.69,0,0,0,403,15M382.33,37.56c-1.73-2.06-3.19-3.85-3.78-4.66-2.46-2.94-3.42-3.64-4.33-4-.26-.11-.51-.18-.73-.26h2.17c5.18,0,8.56-2.68,8.56-6.68s-3.38-6.5-8.56-6.5H362.47v.73l3,1V38.33l-3,1V40H372v-.73l-3-1V16.15h5.07c4,0,6.39,2.5,6.39,5.73s-2.39,5.69-6,6l-3.34.07v.44L379.73,40h7.09v-.73ZM358.43,28H347.85v.73l4.59,1v6.65a7.55,7.55,0,0,1-6.39,3c-5.77,0-10.61-5.62-10.61-12.41s4.7-11.16,10.39-11.16a7.18,7.18,0,0,1,6.35,3.52l2.43,6.13h.77V15.82h-.77l-1.54,1.94a12.28,12.28,0,0,0-7.9-2.79c-7.56,0-13.59,5.47-13.59,12.93a12.68,12.68,0,0,0,13,12.56c5.36,0,9.44-2.13,11.16-4.15V29.78l2.68-1ZM280.64,15.42h-6.76v.73l3,1V34.73l-14.5-19.31h-6.57v.73l2.9,1.18v21l-3,1V40h6.79v-.73l-3-1V18.1L276.16,40h1.51V17.11l3-1ZM231.47,32.05,237,19.24h.11l5.95,12.82Zm18.36,6L239.07,15.42h-1.29l-9.92,22.95-2.68.92V40h6.87v-.73l-3.27-.92,2.39-5.58H243.4l2.46,5.36-2.75,1.14V40h9.14v-.73Zm-42.12,1.25h-4V16.15h4c7,0,10.72,5.14,10.72,11.57s-3.75,11.57-10.72,11.57M208,15.42H197.18v.73l3,1V38.33l-3,1V40H208c9,0,14.21-5.47,14.21-12.3S217,15.42,208,15.42m-15.46,0h-6.76v.73l3,1V34.73l-14.5-19.31h-6.57v.73l2.9,1.18v21l-3,1V40h6.79v-.73l-3-1V18.1L188.07,40h1.51V17.11l3-1ZM143.38,32.05l5.54-12.82H149L155,32.05Zm18.36,6L151,15.42H149.7l-9.91,22.95-2.68.92V40H144v-.73l-3.27-.92,2.39-5.58h12.23l2.46,5.36L155,39.29V40h9.14v-.73ZM135.67,15.42H114.34v7.31h.77l2.31-6.57h5.8V38.33l-3.34,1V40h10.24v-.73l-3.34-1V16.15h5.8l2.31,6.57h.77ZM103.8,26.87l-5-1.62c-3-1-4.26-2.28-4.26-4.55a4.91,4.91,0,0,1,5.18-5,5.61,5.61,0,0,1,4.63,2.2l3.19,6.32h.77V15.34h-.77l-1.1,1.58A12.53,12.53,0,0,0,99.65,15c-4.7,0-8.33,2.39-8.33,6.94,0,3.16,1.76,5.4,5.54,6.61L102,30.18c3,1,4.26,2.46,4.26,4.7,0,3-2.31,4.88-5.51,4.88a7.13,7.13,0,0,1-5.51-2.68l-3.16-5.25h-.73v8.26h.73l1.1-1.95a12.63,12.63,0,0,0,7.53,2.31c5,0,8.74-2.35,8.74-7,0-3.16-1.69-5.22-5.66-6.54M82.91,37.56c-1.73-2.06-3.2-3.85-3.78-4.66-2.46-2.94-3.41-3.64-4.33-4-.26-.11-.51-.18-.73-.26h2.17c5.18,0,8.56-2.68,8.56-6.68s-3.38-6.5-8.56-6.5H63v.73l3,1V38.33l-3,1V40h9.51v-.73l-3-1V16.15h5.07c4,0,6.39,2.5,6.39,5.73s-2.39,5.69-6,6l-3.34.07v.44L80.3,40h7.09v-.73ZM45,39.72c-5.14,0-9-4.74-9-12s3.89-12,9-12,9,4.77,9,12-3.89,12-9,12M45,15A12.74,12.74,0,1,0,57.94,27.72,12.69,12.69,0,0,0,45,15m-17.81.44h-20v.73l3,1V38.33l-3,1V40H17.8v-.73l-4.11-1V28.64h8l1.65,3.67h.77V24.23h-.77L21.69,27.9h-8V16.15H24.3l2.13,6.28h.77Z"/>
<path class="cls-3" transform="translate(-7.15 -4.64)" d="M304.56,4.64c2.21.07,8.45,1.76,8.45,7.22,0,4.49-4.55,7-7.54,8.58l-.91.52c3.45-2.15,4.88-4.94,4.88-9.1s-2.15-6.9-4.88-7.22m18.08,23c-2.47,0-4.42,1.89-6.37,4.68,1.37-1.56,2.08-1.89,2.67-1.89,1.5,0,1.3,2,2.34,3.06a3,3,0,0,0,2,.85,2.94,2.94,0,0,0,3-3,3.43,3.43,0,0,0-3.64-3.71M292.27,44.12A10.7,10.7,0,0,1,292.07,29c-6.37,5.14-8.52,13.07-3.38,18.21,4.29,4.29,11.9,4.29,16.85-1.37-3.06,2.6-9.82,1.82-13.27-1.69m37.14-.39c-1,1.43-2.93,3.38-5.27,3.38-4.75,0-7.48-5-10.8-9.43L302,22.2c-3.71-5.07-5.66-7.94-5.66-11.64a6.2,6.2,0,0,1,5.07-5.92A9.41,9.41,0,0,0,292.72,14c0,3.32,1.82,6.31,4.16,9.56l13.27,18.08c5.53,7.61,7.15,8.72,11.05,8.72,4.81,0,7.55-5.4,8.19-6.63"/>
</g>
</svg>
