<?xml version="1.0" encoding="UTF-8"?>
<svg fill="none" viewBox="0 0 28 19" xmlns="http://www.w3.org/2000/svg">
<path d="m0.4375 11.383c0-2.2266 0.83203-4.3711 2.4961-6.4336 1.6875-2.0625 3.5625-3.5625 5.625-4.5l0.66797 1.4063c-1.6406 0.9375-3.0469 2.1094-4.2188 3.5156-1.1484 1.3828-1.7226 2.7891-1.7226 4.2188 0 0.28125 0.08203 0.49216 0.24609 0.63286 0.1875 0.1406 0.42187 0.2109 0.70313 0.2109 1.5234-0.1641 2.3437-0.2461 2.4609-0.2461 0.77344 0 1.6055 0.2813 2.4961 0.8437 0.91409 0.5626 1.3711 1.5235 1.3711 2.8829 0 1.1484-0.375 2.1211-1.125 2.9179-0.75 0.7969-1.8164 1.1953-3.1992 1.1953-1.6172 0-2.9883-0.6211-4.1133-1.8632-1.125-1.2657-1.6875-2.8594-1.6875-4.7813zm16.523 0.2813c0-2.5078 0.8438-4.7696 2.5313-6.7852 1.7109-2.0391 3.5742-3.5156 5.5898-4.4297l0.668 1.4063c-1.6406 0.9375-3.0469 2.0976-4.2188 3.4805-1.1484 1.3594-1.7226 2.7539-1.7226 4.1836 0 0.25781 0.0703 0.48047 0.2109 0.66797 0.1407 0.1641 0.3867 0.2461 0.7383 0.2461 1.5-0.1641 2.3203-0.2461 2.461-0.2461 0.8671 0 1.7226 0.3164 2.5664 0.9492 0.8671 0.6094 1.3007 1.5235 1.3007 2.7422 0 0.9609-0.3398 1.8984-1.0195 2.8125-0.6562 0.8906-1.7695 1.3359-3.3398 1.3359-1.6875 0-3.0704-0.6445-4.1485-1.9335-1.0781-1.3126-1.6172-2.7891-1.6172-4.4297z" fill="#475B51"/>
</svg>
