<svg data-name="Layer 1" viewBox="0 0 448.69 45.72" xmlns="http://www.w3.org/2000/svg"><defs><clipPath id="a" transform="translate(-7.15 -4.64)"><path fill="none" d="M7.15 4.64h448.69v45.72H7.15z"/></clipPath></defs><g clip-path="url(#a)"><path d="M448.69 10.78h-6.24v.73l2.83.92-6.1 18.65h-.22l-6.43-18.47 2.75-1.1v-.73h-9.53v.73l3 1.54 1 2.68-5 15.35h-.22l-6.39-18.51 2.28-1.06v-.73h-8.67v.73l2.39 1.29 8.15 22.56h1.65l6.2-18.44 6.8 18.44h1.58l7.64-23 2.53-.92zm-52.84 24.3c-5.14 0-9-4.74-9-12s3.89-12 9-12 9 4.77 9 12-3.89 12-9 12m0-24.72a12.74 12.74 0 1 0 12.93 12.74 12.69 12.69 0 0 0-12.93-12.74m-20.67 22.56c-1.73-2.06-3.19-3.85-3.78-4.66-2.46-2.94-3.42-3.64-4.33-4-.26-.11-.51-.18-.73-.26h2.17c5.18 0 8.56-2.68 8.56-6.68s-3.38-6.5-8.56-6.5h-13.19v.73l3 1v21.14l-3 1v.67h9.53v-.73l-3-1V11.51h5.07c4 0 6.39 2.5 6.39 5.73s-2.39 5.69-6 6l-3.34.07v.44l8.61 11.61h7.09v-.73zm-23.9-9.56H340.7v.73l4.59 1v6.65a7.55 7.55 0 0 1-6.39 3c-5.77 0-10.61-5.62-10.61-12.41s4.7-11.16 10.39-11.16a7.18 7.18 0 0 1 6.35 3.52l2.43 6.13h.77v-9.64h-.77l-1.54 1.94a12.28 12.28 0 0 0-7.9-2.79c-7.56 0-13.59 5.47-13.59 12.93a12.68 12.68 0 0 0 13 12.56c5.36 0 9.44-2.13 11.16-4.15v-6.53l2.68-1zm-77.79-12.58h-6.76v.73l3 1v17.58l-14.5-19.31h-6.57v.73l2.9 1.18v21l-3 1v.67h6.79v-.73l-3-1V13.46l16.66 21.9h1.51V12.47l3-1zm-49.17 16.63l5.53-12.81h.11l5.95 12.82zm18.36 6l-10.76-22.63h-1.29l-9.92 22.95-2.68.92v.71h6.87v-.73l-3.27-.92 2.39-5.58h12.23l2.46 5.36-2.75 1.14v.73h9.14v-.73zm-42.12 1.25h-4V11.51h4c7 0 10.72 5.14 10.72 11.57s-3.75 11.57-10.72 11.57m.29-23.87h-10.82v.73l3 1v21.18l-3 1v.67h10.82c9 0 14.21-5.47 14.21-12.3s-5.21-12.28-14.21-12.28m-15.46 0h-6.76v.73l3 1v17.58l-14.5-19.31h-6.57v.73l2.9 1.18v21l-3 1v.67h6.79v-.73l-3-1V13.46l16.67 21.9h1.51V12.47l3-1zm-49.16 16.63l5.54-12.82h.08l6 12.82zm18.36 6l-10.74-22.63h-1.3l-9.91 22.95-2.68.92v.71h6.89v-.73l-3.27-.92 2.39-5.58h12.23l2.46 5.36-2.81 1.16v.71h9.14v-.73zm-26.07-22.63h-21.33v7.31h.77l2.31-6.57h5.8v22.17l-3.34 1v.67h10.24v-.73l-3.34-1V11.51h5.8l2.31 6.57h.77zM96.65 22.23l-5-1.62c-3-1-4.26-2.28-4.26-4.55a4.91 4.91 0 0 1 5.18-5 5.61 5.61 0 0 1 4.63 2.2l3.19 6.32h.77V10.7h-.77l-1.1 1.58a12.53 12.53 0 0 0-6.79-1.92c-4.7 0-8.33 2.39-8.33 6.94 0 3.16 1.76 5.4 5.54 6.61l5.14 1.63c3 1 4.26 2.46 4.26 4.7 0 3-2.31 4.88-5.51 4.88a7.13 7.13 0 0 1-5.51-2.68l-3.16-5.25h-.73v8.26h.73l1.1-1.95a12.63 12.63 0 0 0 7.53 2.31c5 0 8.74-2.35 8.74-7 0-3.16-1.69-5.22-5.66-6.54M75.76 32.92c-1.73-2.06-3.2-3.85-3.78-4.66-2.46-2.94-3.41-3.64-4.33-4-.26-.11-.51-.18-.73-.26h2.17c5.18 0 8.56-2.68 8.56-6.68s-3.38-6.5-8.56-6.5H55.85v.73l3 1v21.14l-3 1v.67h9.51v-.73l-3-1V11.51h5.07c4 0 6.39 2.5 6.39 5.73s-2.39 5.69-6 6l-3.34.07v.44l8.67 11.61h7.09v-.73zm-37.91 2.16c-5.14 0-9-4.74-9-12s3.89-12 9-12 9 4.77 9 12-3.89 12-9 12m0-24.72a12.74 12.74 0 1 0 12.94 12.72 12.69 12.69 0 0 0-12.94-12.72m-17.81.44h-20v.73l3 1v21.16l-3 1v.67h10.61v-.73l-4.11-1V24h8l1.65 3.67h.77v-8.08h-.77l-1.65 3.67h-8V11.51h10.61l2.13 6.28h.77zM297.41 0c2.21.07 8.45 1.76 8.45 7.22 0 4.49-4.55 7-7.54 8.58l-.91.52c3.45-2.15 4.88-4.94 4.88-9.1S300.14.32 297.41 0m18.08 23c-2.47 0-4.42 1.89-6.37 4.68 1.37-1.56 2.08-1.89 2.67-1.89 1.5 0 1.3 2 2.34 3.06a3 3 0 0 0 2 .85 2.94 2.94 0 0 0 3-3 3.43 3.43 0 0 0-3.64-3.71m-30.37 16.49a10.7 10.7 0 0 1-.2-15.12c-6.37 5.14-8.52 13.07-3.38 18.21 4.29 4.29 11.9 4.29 16.85-1.37-3.06 2.6-9.82 1.82-13.27-1.69m37.14-.39c-1 1.43-2.93 3.38-5.27 3.38-4.75 0-7.48-5-10.8-9.43l-11.34-15.51c-3.71-5.07-5.66-7.94-5.66-11.64A6.2 6.2 0 0 1 294.26 0a9.41 9.41 0 0 0-8.69 9.36c0 3.32 1.82 6.31 4.16 9.56L303 37c5.53 7.61 7.15 8.72 11.05 8.72 4.81 0 7.55-5.4 8.19-6.63" fill="#fff"/></g></svg>