<svg fill="none" viewBox="0 0 28 19" xmlns="http://www.w3.org/2000/svg"><path d="M.438 11.383c0-2.227.832-4.371 2.496-6.434C4.62 2.887 6.496 1.387 8.559.45l.668 1.407a15.351 15.351 0 0 0-4.22 3.515c-1.148 1.383-1.722 2.79-1.722 4.22 0 .28.082.491.246.632.188.14.422.21.703.21 1.524-.163 2.344-.245 2.461-.245.774 0 1.606.281 2.496.843.914.563 1.371 1.524 1.371 2.883 0 1.149-.375 2.121-1.125 2.918-.75.797-1.816 1.196-3.199 1.196-1.617 0-2.988-.622-4.113-1.864C1 14.9.437 13.305.437 11.384zm16.523.281c0-2.508.843-4.77 2.53-6.785 1.712-2.039 3.575-3.516 5.59-4.43l.669 1.407a15.653 15.653 0 0 0-4.22 3.48c-1.148 1.36-1.722 2.754-1.722 4.184 0 .258.07.48.211.668.14.164.387.246.738.246 1.5-.164 2.32-.246 2.461-.246.867 0 1.723.316 2.567.949.867.61 1.3 1.523 1.3 2.742 0 .961-.34 1.899-1.019 2.813-.656.89-1.77 1.336-3.34 1.336-1.687 0-3.07-.645-4.148-1.934-1.078-1.313-1.618-2.789-1.618-4.43z" fill="#475B51"/></svg>